STARTFONT 2.1
FONT -FontForge-04b21-Book-R-Normal--16-150-75-75-P-105-ISO10646-1
SIZE 15 75 75
FONTBOUNDINGBOX 13 12 0 0
COMMENT "Generated by fontforge, http://fontforge.sourceforge.net"
COMMENT "1999-2003 / yuji oshimoo / 04@dsg4.com / www.04.jp.org"
STARTPROPERTIES 39
FOUNDRY "FontForge"
FAMILY_NAME "04b21"
WEIGHT_NAME "Book"
SLANT "R"
SETWIDTH_NAME "Normal"
ADD_STYLE_NAME ""
PIXEL_SIZE 16
POINT_SIZE 150
RESOLUTION_X 75
RESOLUTION_Y 75
SPACING "P"
AVERAGE_WIDTH 105
CHARSET_REGISTRY "ISO10646"
CHARSET_ENCODING "1"
FONTNAME_REGISTRY ""
CHARSET_COLLECTIONS "ISO10646-1"
FONT_NAME "04b21"
FACE_NAME "04b21"
COPYRIGHT "1999-2003 / yuji oshimoo / 04@dsg4.com / www.04.jp.org"
FONT_VERSION "Macromedia Fonographer 4.1J 03.3.25"
FONT_ASCENT 12
FONT_DESCENT 4
UNDERLINE_POSITION -2
UNDERLINE_THICKNESS 1
X_HEIGHT 9
CAP_HEIGHT 9
RAW_ASCENT 750
RAW_DESCENT 250
NORM_SPACE 8
RELATIVE_WEIGHT 40
RELATIVE_SETWIDTH 50
SUPERSCRIPT_X 0
SUPERSCRIPT_Y 7
SUPERSCRIPT_SIZE 10
SUBSCRIPT_X 0
SUBSCRIPT_Y 2
SUBSCRIPT_SIZE 10
AVG_LOWERCASE_WIDTH 120
AVG_UPPERCASE_WIDTH 118
ENDPROPERTIES
CHARS 100
STARTCHAR space
ENCODING 32
SWIDTH 500 0
DWIDTH 8 0
BBX 1 1 0 0
BITMAP
00
ENDCHAR
STARTCHAR exclam
ENCODING 33
SWIDTH 500 0
DWIDTH 8 0
BBX 2 10 3 0
BITMAP
C0
C0
C0
C0
C0
C0
00
00
C0
C0
ENDCHAR
STARTCHAR quotedbl
ENCODING 34
SWIDTH 500 0
DWIDTH 8 0
BBX 6 4 1 6
BITMAP
CC
CC
CC
CC
ENDCHAR
STARTCHAR numbersign
ENCODING 35
SWIDTH 750 0
DWIDTH 12 0
BBX 10 10 1 0
BITMAP
3300
3300
FFC0
FFC0
3300
3300
FFC0
FFC0
3300
3300
ENDCHAR
STARTCHAR dollar
ENCODING 36
SWIDTH 750 0
DWIDTH 12 0
BBX 10 10 1 0
BITMAP
3FC0
3FC0
CC00
CC00
3F00
3F00
0CC0
0CC0
FF00
FF00
ENDCHAR
STARTCHAR percent
ENCODING 37
SWIDTH 750 0
DWIDTH 12 0
BBX 10 10 1 0
BITMAP
C0C0
C0C0
0300
0300
0C00
0C00
3000
3000
C0C0
C0C0
ENDCHAR
STARTCHAR ampersand
ENCODING 38
SWIDTH 875 0
DWIDTH 14 0
BBX 12 10 1 0
BITMAP
3C00
3C00
C300
C300
3C30
3C30
C3C0
C3C0
3F30
3F30
ENDCHAR
STARTCHAR quotesingle
ENCODING 39
SWIDTH 250 0
DWIDTH 4 0
BBX 2 4 1 6
BITMAP
C0
C0
C0
C0
ENDCHAR
STARTCHAR parenleft
ENCODING 40
SWIDTH 375 0
DWIDTH 6 0
BBX 4 10 1 0
BITMAP
30
30
C0
C0
C0
C0
C0
C0
30
30
ENDCHAR
STARTCHAR parenright
ENCODING 41
SWIDTH 375 0
DWIDTH 6 0
BBX 4 10 1 0
BITMAP
C0
C0
30
30
30
30
30
30
C0
C0
ENDCHAR
STARTCHAR asterisk
ENCODING 42
SWIDTH 500 0
DWIDTH 8 0
BBX 6 6 1 4
BITMAP
CC
CC
30
30
CC
CC
ENDCHAR
STARTCHAR plus
ENCODING 43
SWIDTH 750 0
DWIDTH 12 0
BBX 10 10 1 0
BITMAP
0C00
0C00
0C00
0C00
FFC0
FFC0
0C00
0C00
0C00
0C00
ENDCHAR
STARTCHAR comma
ENCODING 44
SWIDTH 250 0
DWIDTH 4 0
BBX 2 4 1 0
BITMAP
C0
C0
C0
C0
ENDCHAR
STARTCHAR hyphen
ENCODING 45
SWIDTH 750 0
DWIDTH 12 0
BBX 10 2 1 4
BITMAP
FFC0
FFC0
ENDCHAR
STARTCHAR period
ENCODING 46
SWIDTH 250 0
DWIDTH 4 0
BBX 2 2 1 0
BITMAP
C0
C0
ENDCHAR
STARTCHAR slash
ENCODING 47
SWIDTH 750 0
DWIDTH 12 0
BBX 10 10 1 0
BITMAP
00C0
00C0
0300
0300
0C00
0C00
3000
3000
C000
C000
ENDCHAR
STARTCHAR zero
ENCODING 48
SWIDTH 750 0
DWIDTH 12 0
BBX 10 10 1 0
BITMAP
3F00
3F00
C0C0
C0C0
C0C0
C0C0
C0C0
C0C0
3F00
3F00
ENDCHAR
STARTCHAR one
ENCODING 49
SWIDTH 375 0
DWIDTH 6 0
BBX 4 10 1 0
BITMAP
30
30
F0
F0
30
30
30
30
30
30
ENDCHAR
STARTCHAR two
ENCODING 50
SWIDTH 750 0
DWIDTH 12 0
BBX 10 10 1 0
BITMAP
FF00
FF00
00C0
00C0
3F00
3F00
C000
C000
FFC0
FFC0
ENDCHAR
STARTCHAR three
ENCODING 51
SWIDTH 750 0
DWIDTH 12 0
BBX 10 10 1 0
BITMAP
FF00
FF00
00C0
00C0
3F00
3F00
00C0
00C0
FF00
FF00
ENDCHAR
STARTCHAR four
ENCODING 52
SWIDTH 750 0
DWIDTH 12 0
BBX 10 10 1 0
BITMAP
0F00
0F00
3300
3300
C300
C300
FFC0
FFC0
0300
0300
ENDCHAR
STARTCHAR five
ENCODING 53
SWIDTH 750 0
DWIDTH 12 0
BBX 10 10 1 0
BITMAP
FFC0
FFC0
C000
C000
FF00
FF00
00C0
00C0
FF00
FF00
ENDCHAR
STARTCHAR six
ENCODING 54
SWIDTH 750 0
DWIDTH 12 0
BBX 10 10 1 0
BITMAP
3F00
3F00
C000
C000
FF00
FF00
C0C0
C0C0
3F00
3F00
ENDCHAR
STARTCHAR seven
ENCODING 55
SWIDTH 750 0
DWIDTH 12 0
BBX 10 10 1 0
BITMAP
FFC0
FFC0
00C0
00C0
0300
0300
0C00
0C00
3000
3000
ENDCHAR
STARTCHAR eight
ENCODING 56
SWIDTH 750 0
DWIDTH 12 0
BBX 10 10 1 0
BITMAP
3F00
3F00
C0C0
C0C0
3F00
3F00
C0C0
C0C0
3F00
3F00
ENDCHAR
STARTCHAR nine
ENCODING 57
SWIDTH 750 0
DWIDTH 12 0
BBX 10 10 1 0
BITMAP
3F00
3F00
C0C0
C0C0
3FC0
3FC0
00C0
00C0
3F00
3F00
ENDCHAR
STARTCHAR colon
ENCODING 58
SWIDTH 250 0
DWIDTH 4 0
BBX 2 6 1 2
BITMAP
C0
C0
00
00
C0
C0
ENDCHAR
STARTCHAR semicolon
ENCODING 59
SWIDTH 250 0
DWIDTH 4 0
BBX 2 8 1 0
BITMAP
C0
C0
00
00
C0
C0
C0
C0
ENDCHAR
STARTCHAR less
ENCODING 60
SWIDTH 500 0
DWIDTH 8 0
BBX 6 10 1 0
BITMAP
0C
0C
30
30
C0
C0
30
30
0C
0C
ENDCHAR
STARTCHAR equal
ENCODING 61
SWIDTH 750 0
DWIDTH 12 0
BBX 10 6 1 2
BITMAP
FFC0
FFC0
0000
0000
FFC0
FFC0
ENDCHAR
STARTCHAR greater
ENCODING 62
SWIDTH 500 0
DWIDTH 8 0
BBX 6 10 1 0
BITMAP
C0
C0
30
30
0C
0C
30
30
C0
C0
ENDCHAR
STARTCHAR question
ENCODING 63
SWIDTH 625 0
DWIDTH 10 0
BBX 8 10 1 0
BITMAP
FC
FC
03
03
3C
3C
00
00
30
30
ENDCHAR
STARTCHAR at
ENCODING 64
SWIDTH 750 0
DWIDTH 12 0
BBX 10 10 1 0
BITMAP
3F00
3F00
C0C0
C0C0
CFC0
CFC0
CCC0
CCC0
3FC0
3FC0
ENDCHAR
STARTCHAR A
ENCODING 65
SWIDTH 750 0
DWIDTH 12 0
BBX 10 10 1 0
BITMAP
3F00
3F00
C0C0
C0C0
FFC0
FFC0
C0C0
C0C0
C0C0
C0C0
ENDCHAR
STARTCHAR B
ENCODING 66
SWIDTH 750 0
DWIDTH 12 0
BBX 10 10 1 0
BITMAP
FF00
FF00
C0C0
C0C0
FF00
FF00
C0C0
C0C0
FF00
FF00
ENDCHAR
STARTCHAR C
ENCODING 67
SWIDTH 750 0
DWIDTH 12 0
BBX 10 10 1 0
BITMAP
3F00
3F00
C0C0
C0C0
C000
C000
C0C0
C0C0
3F00
3F00
ENDCHAR
STARTCHAR D
ENCODING 68
SWIDTH 750 0
DWIDTH 12 0
BBX 10 10 1 0
BITMAP
FF00
FF00
C0C0
C0C0
C0C0
C0C0
C0C0
C0C0
FF00
FF00
ENDCHAR
STARTCHAR E
ENCODING 69
SWIDTH 750 0
DWIDTH 12 0
BBX 10 10 1 0
BITMAP
3FC0
3FC0
C000
C000
FFC0
FFC0
C000
C000
3FC0
3FC0
ENDCHAR
STARTCHAR F
ENCODING 70
SWIDTH 750 0
DWIDTH 12 0
BBX 10 10 1 0
BITMAP
3FC0
3FC0
C000
C000
FFC0
FFC0
C000
C000
C000
C000
ENDCHAR
STARTCHAR G
ENCODING 71
SWIDTH 750 0
DWIDTH 12 0
BBX 10 10 1 0
BITMAP
3FC0
3FC0
C000
C000
CFC0
CFC0
C0C0
C0C0
3FC0
3FC0
ENDCHAR
STARTCHAR H
ENCODING 72
SWIDTH 750 0
DWIDTH 12 0
BBX 10 10 1 0
BITMAP
C0C0
C0C0
C0C0
C0C0
FFC0
FFC0
C0C0
C0C0
C0C0
C0C0
ENDCHAR
STARTCHAR I
ENCODING 73
SWIDTH 500 0
DWIDTH 8 0
BBX 6 10 1 0
BITMAP
FC
FC
30
30
30
30
30
30
FC
FC
ENDCHAR
STARTCHAR J
ENCODING 74
SWIDTH 750 0
DWIDTH 12 0
BBX 10 10 1 0
BITMAP
0FC0
0FC0
00C0
00C0
00C0
00C0
C0C0
C0C0
3F00
3F00
ENDCHAR
STARTCHAR K
ENCODING 75
SWIDTH 750 0
DWIDTH 12 0
BBX 10 10 1 0
BITMAP
C0C0
C0C0
C300
C300
FC00
FC00
C300
C300
C0C0
C0C0
ENDCHAR
STARTCHAR L
ENCODING 76
SWIDTH 750 0
DWIDTH 12 0
BBX 10 10 1 0
BITMAP
C000
C000
C000
C000
C000
C000
C000
C000
FFC0
FFC0
ENDCHAR
STARTCHAR M
ENCODING 77
SWIDTH 750 0
DWIDTH 12 0
BBX 10 10 1 0
BITMAP
C0C0
C0C0
F3C0
F3C0
CCC0
CCC0
C0C0
C0C0
C0C0
C0C0
ENDCHAR
STARTCHAR N
ENCODING 78
SWIDTH 750 0
DWIDTH 12 0
BBX 10 10 1 0
BITMAP
C0C0
C0C0
F0C0
F0C0
CCC0
CCC0
C3C0
C3C0
C0C0
C0C0
ENDCHAR
STARTCHAR O
ENCODING 79
SWIDTH 750 0
DWIDTH 12 0
BBX 10 10 1 0
BITMAP
3F00
3F00
C0C0
C0C0
C0C0
C0C0
C0C0
C0C0
3F00
3F00
ENDCHAR
STARTCHAR P
ENCODING 80
SWIDTH 750 0
DWIDTH 12 0
BBX 10 10 1 0
BITMAP
FF00
FF00
C0C0
C0C0
FF00
FF00
C000
C000
C000
C000
ENDCHAR
STARTCHAR Q
ENCODING 81
SWIDTH 750 0
DWIDTH 12 0
BBX 10 10 1 0
BITMAP
3F00
3F00
C0C0
C0C0
C0C0
C0C0
C3C0
C3C0
3FC0
3FC0
ENDCHAR
STARTCHAR R
ENCODING 82
SWIDTH 750 0
DWIDTH 12 0
BBX 10 10 1 0
BITMAP
FF00
FF00
C0C0
C0C0
FF00
FF00
C300
C300
C0C0
C0C0
ENDCHAR
STARTCHAR S
ENCODING 83
SWIDTH 750 0
DWIDTH 12 0
BBX 10 10 1 0
BITMAP
3FC0
3FC0
C000
C000
3F00
3F00
00C0
00C0
FF00
FF00
ENDCHAR
STARTCHAR T
ENCODING 84
SWIDTH 750 0
DWIDTH 12 0
BBX 10 10 1 0
BITMAP
FFC0
FFC0
0C00
0C00
0C00
0C00
0C00
0C00
0C00
0C00
ENDCHAR
STARTCHAR U
ENCODING 85
SWIDTH 750 0
DWIDTH 12 0
BBX 10 10 1 0
BITMAP
C0C0
C0C0
C0C0
C0C0
C0C0
C0C0
C0C0
C0C0
3F00
3F00
ENDCHAR
STARTCHAR V
ENCODING 86
SWIDTH 750 0
DWIDTH 12 0
BBX 10 10 1 0
BITMAP
C0C0
C0C0
C0C0
C0C0
C0C0
C0C0
3300
3300
0C00
0C00
ENDCHAR
STARTCHAR W
ENCODING 87
SWIDTH 750 0
DWIDTH 12 0
BBX 10 10 1 0
BITMAP
CCC0
CCC0
CCC0
CCC0
CCC0
CCC0
CCC0
CCC0
3300
3300
ENDCHAR
STARTCHAR X
ENCODING 88
SWIDTH 750 0
DWIDTH 12 0
BBX 10 10 0 0
BITMAP
C0C0
C0C0
3300
3300
0C00
0C00
3300
3300
C0C0
C0C0
ENDCHAR
STARTCHAR Y
ENCODING 89
SWIDTH 750 0
DWIDTH 12 0
BBX 10 10 1 0
BITMAP
C0C0
C0C0
C0C0
C0C0
3300
3300
0C00
0C00
0C00
0C00
ENDCHAR
STARTCHAR Z
ENCODING 90
SWIDTH 750 0
DWIDTH 12 0
BBX 10 10 1 0
BITMAP
FFC0
FFC0
0300
0300
0C00
0C00
3000
3000
FFC0
FFC0
ENDCHAR
STARTCHAR bracketleft
ENCODING 91
SWIDTH 375 0
DWIDTH 6 0
BBX 4 10 1 0
BITMAP
F0
F0
C0
C0
C0
C0
C0
C0
F0
F0
ENDCHAR
STARTCHAR backslash
ENCODING 92
SWIDTH 750 0
DWIDTH 12 0
BBX 10 10 1 0
BITMAP
C000
C000
3000
3000
0C00
0C00
0300
0300
00C0
00C0
ENDCHAR
STARTCHAR bracketright
ENCODING 93
SWIDTH 375 0
DWIDTH 6 0
BBX 4 10 1 0
BITMAP
F0
F0
30
30
30
30
30
30
F0
F0
ENDCHAR
STARTCHAR asciicircum
ENCODING 94
SWIDTH 500 0
DWIDTH 8 0
BBX 6 4 1 6
BITMAP
30
30
CC
CC
ENDCHAR
STARTCHAR underscore
ENCODING 95
SWIDTH 750 0
DWIDTH 12 0
BBX 10 2 1 0
BITMAP
FFC0
FFC0
ENDCHAR
STARTCHAR grave
ENCODING 96
SWIDTH 375 0
DWIDTH 6 0
BBX 4 4 1 6
BITMAP
C0
C0
30
30
ENDCHAR
STARTCHAR a
ENCODING 97
SWIDTH 750 0
DWIDTH 12 0
BBX 10 10 1 0
BITMAP
3300
3300
FFC0
FFC0
CCC0
CCC0
FFC0
FFC0
3300
3300
ENDCHAR
STARTCHAR b
ENCODING 98
SWIDTH 750 0
DWIDTH 12 0
BBX 10 10 1 0
BITMAP
FFC0
FFC0
CCC0
CCC0
FFC0
FFC0
3F00
3F00
F3C0
F3C0
ENDCHAR
STARTCHAR c
ENCODING 99
SWIDTH 750 0
DWIDTH 12 0
BBX 10 10 1 0
BITMAP
3F00
3F00
CCC0
CCC0
FFC0
FFC0
C0C0
C0C0
3300
3300
ENDCHAR
STARTCHAR d
ENCODING 100
SWIDTH 750 0
DWIDTH 12 0
BBX 10 10 1 0
BITMAP
3F00
3F00
FFC0
FFC0
CCC0
CCC0
FFC0
FFC0
3300
3300
ENDCHAR
STARTCHAR e
ENCODING 101
SWIDTH 750 0
DWIDTH 12 0
BBX 10 10 1 0
BITMAP
3F00
3F00
CCC0
CCC0
FFC0
FFC0
FFC0
FFC0
CCC0
CCC0
ENDCHAR
STARTCHAR f
ENCODING 102
SWIDTH 750 0
DWIDTH 12 0
BBX 10 10 1 0
BITMAP
FFC0
FFC0
CCC0
CCC0
FFC0
FFC0
3300
3300
C0C0
C0C0
ENDCHAR
STARTCHAR g
ENCODING 103
SWIDTH 750 0
DWIDTH 12 0
BBX 10 10 1 0
BITMAP
F3C0
F3C0
3F00
3F00
CCC0
CCC0
3F00
3F00
F3C0
F3C0
ENDCHAR
STARTCHAR h
ENCODING 104
SWIDTH 750 0
DWIDTH 12 0
BBX 10 10 1 0
BITMAP
3F00
3F00
CCC0
CCC0
FFC0
FFC0
3F00
3F00
CCC0
CCC0
ENDCHAR
STARTCHAR i
ENCODING 105
SWIDTH 750 0
DWIDTH 12 0
BBX 10 10 1 0
BITMAP
CCC0
CCC0
FFC0
FFC0
CCC0
CCC0
3F00
3F00
F3C0
F3C0
ENDCHAR
STARTCHAR j
ENCODING 106
SWIDTH 750 0
DWIDTH 12 0
BBX 10 10 1 0
BITMAP
0C00
0C00
3F00
3F00
FFC0
FFC0
3F00
3F00
CCC0
CCC0
ENDCHAR
STARTCHAR k
ENCODING 107
SWIDTH 750 0
DWIDTH 12 0
BBX 10 10 1 0
BITMAP
0C00
0C00
FFC0
FFC0
FFC0
FFC0
0C00
0C00
3F00
3F00
ENDCHAR
STARTCHAR l
ENCODING 108
SWIDTH 750 0
DWIDTH 12 0
BBX 10 10 1 0
BITMAP
0C00
0C00
3F00
3F00
FFC0
FFC0
0C00
0C00
3300
3300
ENDCHAR
STARTCHAR m
ENCODING 109
SWIDTH 750 0
DWIDTH 12 0
BBX 10 10 1 0
BITMAP
0C00
0C00
3F00
3F00
FFC0
FFC0
FFC0
FFC0
CCC0
CCC0
ENDCHAR
STARTCHAR n
ENCODING 110
SWIDTH 750 0
DWIDTH 12 0
BBX 10 10 1 0
BITMAP
0C00
0C00
3F00
3F00
FFC0
FFC0
FFC0
FFC0
3300
3300
ENDCHAR
STARTCHAR o
ENCODING 111
SWIDTH 750 0
DWIDTH 12 0
BBX 10 10 1 0
BITMAP
3300
3300
0C00
0C00
3F00
3F00
FFC0
FFC0
FFC0
FFC0
ENDCHAR
STARTCHAR p
ENCODING 112
SWIDTH 750 0
DWIDTH 12 0
BBX 10 10 1 0
BITMAP
0C00
0C00
3F00
3F00
3F00
3F00
CCC0
CCC0
FFC0
FFC0
ENDCHAR
STARTCHAR q
ENCODING 113
SWIDTH 750 0
DWIDTH 12 0
BBX 10 10 1 0
BITMAP
CCC0
CCC0
FFC0
FFC0
FFC0
FFC0
3F00
3F00
CCC0
CCC0
ENDCHAR
STARTCHAR r
ENCODING 114
SWIDTH 750 0
DWIDTH 12 0
BBX 10 10 1 0
BITMAP
3300
3300
0C00
0C00
FFC0
FFC0
FFC0
FFC0
3300
3300
ENDCHAR
STARTCHAR s
ENCODING 115
SWIDTH 750 0
DWIDTH 12 0
BBX 10 10 1 0
BITMAP
3F00
3F00
C0C0
C0C0
C0C0
C0C0
C0C0
C0C0
3F00
3F00
ENDCHAR
STARTCHAR t
ENCODING 116
SWIDTH 750 0
DWIDTH 12 0
BBX 10 10 0 0
BITMAP
C0C0
C0C0
3300
3300
0C00
0C00
3300
3300
C0C0
C0C0
ENDCHAR
STARTCHAR u
ENCODING 117
SWIDTH 750 0
DWIDTH 12 0
BBX 10 10 1 0
BITMAP
FFC0
FFC0
C0C0
C0C0
C0C0
C0C0
C0C0
C0C0
FFC0
FFC0
ENDCHAR
STARTCHAR v
ENCODING 118
SWIDTH 750 0
DWIDTH 12 0
BBX 10 10 1 0
BITMAP
0C00
0C00
3300
3300
3300
3300
C0C0
C0C0
FFC0
FFC0
ENDCHAR
STARTCHAR w
ENCODING 119
SWIDTH 750 0
DWIDTH 12 0
BBX 10 10 1 0
BITMAP
0C00
0C00
0F00
0F00
FFC0
FFC0
0F00
0F00
0C00
0C00
ENDCHAR
STARTCHAR x
ENCODING 120
SWIDTH 750 0
DWIDTH 12 0
BBX 10 10 1 0
BITMAP
0C00
0C00
0300
0300
FFC0
FFC0
0300
0300
0C00
0C00
ENDCHAR
STARTCHAR y
ENCODING 121
SWIDTH 750 0
DWIDTH 12 0
BBX 10 10 1 0
BITMAP
CC00
CC00
CF00
CF00
CFC0
CFC0
CF00
CF00
CC00
CC00
ENDCHAR
STARTCHAR z
ENCODING 122
SWIDTH 750 0
DWIDTH 12 0
BBX 10 10 1 0
BITMAP
3F00
3F00
F3C0
F3C0
FF00
FF00
FFC0
FFC0
3F00
3F00
ENDCHAR
STARTCHAR braceleft
ENCODING 123
SWIDTH 500 0
DWIDTH 8 0
BBX 6 10 1 0
BITMAP
3C
3C
30
30
C0
C0
30
30
3C
3C
ENDCHAR
STARTCHAR bar
ENCODING 124
SWIDTH 250 0
DWIDTH 4 0
BBX 2 10 1 0
BITMAP
C0
C0
C0
C0
C0
C0
C0
C0
C0
C0
ENDCHAR
STARTCHAR braceright
ENCODING 125
SWIDTH 500 0
DWIDTH 8 0
BBX 6 10 1 0
BITMAP
F0
F0
30
30
0C
0C
30
30
F0
F0
ENDCHAR
STARTCHAR asciitilde
ENCODING 126
SWIDTH 625 0
DWIDTH 10 0
BBX 8 4 1 6
BITMAP
33
33
CC
CC
ENDCHAR
STARTCHAR nonbreakingspace
ENCODING 160
SWIDTH 625 0
DWIDTH 10 0
BBX 1 1 0 0
BITMAP
00
ENDCHAR
STARTCHAR hyphen.dup1
ENCODING 8208
SWIDTH 750 0
DWIDTH 12 0
BBX 10 2 1 4
BITMAP
FFC0
FFC0
ENDCHAR
STARTCHAR .notdef
ENCODING -1
SWIDTH 500 0
DWIDTH 8 0
BBX 6 12 1 0
BITMAP
FC
FC
CC
CC
CC
CC
CC
CC
CC
CC
FC
FC
ENDCHAR
STARTCHAR .null
ENCODING -1
SWIDTH 0 0
DWIDTH 0 0
BBX 1 1 0 0
BITMAP
00
ENDCHAR
STARTCHAR nonmarkingreturn
ENCODING -1
SWIDTH 500 0
DWIDTH 8 0
BBX 1 1 0 0
BITMAP
00
ENDCHAR
ENDFONT
